<?xml version="1.0" encoding="UTF-8" standalone="no"?>
<svg
   viewBox="0 0 724 561"
   version="1.1"
   id="svg16"
   sodipodi:docname="icon-inside-r.svg"
   inkscape:version="1.4.4 (dcaf3e7d9e, 2026-05-05)"
   xmlns:inkscape="http://www.inkscape.org/namespaces/inkscape"
   xmlns:sodipodi="http://sodipodi.sourceforge.net/DTD/sodipodi-0.dtd"
   xmlns="http://www.w3.org/2000/svg"
   xmlns:svg="http://www.w3.org/2000/svg">
  <sodipodi:namedview
     id="namedview16"
     pagecolor="#ffffff"
     bordercolor="#000000"
     borderopacity="0.25"
     inkscape:showpageshadow="2"
     inkscape:pageopacity="0.0"
     inkscape:pagecheckerboard="0"
     inkscape:deskcolor="#d1d1d1"
     inkscape:zoom="1.3867403"
     inkscape:cx="99.513944"
     inkscape:cy="250.22709"
     inkscape:window-width="3840"
     inkscape:window-height="2089"
     inkscape:window-x="2160"
     inkscape:window-y="34"
     inkscape:window-maximized="1"
     inkscape:current-layer="svg16" />
  <defs
     id="defs4">
    <linearGradient
       id="rGray"
       x1="0"
       x2="1"
       y1="0"
       y2="1"
       gradientUnits="objectBoundingBox"
       spreadMethod="pad">
      <stop
         offset="0"
         stop-color="rgb(203,206,208)"
         stop-opacity="1"
         id="stop1" />
      <stop
         offset="1"
         stop-color="rgb(132,131,139)"
         stop-opacity="1"
         id="stop2" />
    </linearGradient>
    <linearGradient
       id="rBlue"
       x1="0"
       x2="1"
       y1="0"
       y2="1"
       gradientUnits="objectBoundingBox"
       spreadMethod="pad">
      <stop
         offset="0"
         stop-color="rgb(39,109,195)"
         stop-opacity="1"
         id="stop3" />
      <stop
         offset="1"
         stop-color="rgb(22,92,170)"
         stop-opacity="1"
         id="stop4" />
    </linearGradient>
  </defs>
  <!-- R logo outer container -->
  <path
     d="M361.453,485.937 C162.329,485.937 0.906,377.828 0.906,244.469 C0.906,111.109 162.329,3.000 361.453,3.000 C560.578,3.000 722.000,111.109 722.000,244.469 C722.000,377.828 560.578,485.937 361.453,485.937 ZM416.641,97.406 C265.289,97.406 142.594,171.314 142.594,262.484 C142.594,353.654 265.289,427.562 416.641,427.562 C567.992,427.562 679.687,377.033 679.687,262.484 C679.687,147.971 567.992,97.406 416.641,97.406 Z"
     fill="url(#rGray)"
     fill-rule="evenodd"
     id="path4"
     style="fill:#f7a41d;fill-opacity:1" />
  <!-- R letter -->
  <path
     d="M550.000,377.000 C550.000,377.000 571.822,383.585 584.500,390.000 C588.899,392.226 596.510,396.668 602.000,402.500 C607.378,408.212 610.000,414.000 610.000,414.000 L696.000,559.000 L557.000,559.062 L492.000,437.000 C492.000,437.000 478.690,414.131 470.500,407.500 C463.668,401.969 460.755,400.000 454.000,400.000 C449.298,400.000 420.974,400.000 420.974,400.000 L421.000,558.974 L298.000,559.026 L298.000,152.938 L545.000,152.938 C545.000,152.938 657.500,154.967 657.500,262.000 C657.500,369.033 550.000,377.000 550.000,377.000 ZM496.500,241.024 L422.037,240.976 L422.000,310.026 L496.500,310.002 C496.500,310.002 531.000,309.895 531.000,274.877 C531.000,239.155 496.500,241.024 496.500,241.024 Z"
     fill="url(#rBlue)"
     fill-rule="evenodd"
     id="path5" />
  <g
     id="g16"
     transform="matrix(3.3234458,0,0,3.3234458,-1095.2243,-627.65044)">
    <polygon
       points="62,36 37,44 56,22 "
       id="polygon8"
       transform="matrix(0.22,0,0,0.22,455.17,256.6)"
       style="fill:#f7a41d" />
    <polygon
       points="37,44 56,32 56,22 111,22 111,44 "
       id="polygon9"
       transform="matrix(0.22,0,0,0.22,455.17,256.6)"
       style="fill:#f7a41d" />
    <polygon
       points="97,117 90,104 116,95 "
       id="polygon10"
       transform="matrix(0.22,0,0,0.22,455.17,256.6)"
       style="fill:#f7a41d" />
    <polygon
       points="42,117 42,95 116,95 100,104 97,117 "
       id="polygon11"
       transform="matrix(0.22,0,0,0.22,455.17,256.6)"
       style="fill:#f7a41d" />
    <polygon
       points="52,117 3,140 101,22 150,0 "
       id="polygon12"
       transform="matrix(0.22,0,0,0.22,455.17,256.6)"
       style="fill:#f7a41d" />
  </g>
  <!-- Glow behind bolt (energy source) -->
  <!-- Zig bolt positioned inside the R's counter -->
  <!-- Energy rays radiating from the bolt outward through the R -->
</svg>
